<?xml version="1.0" standalone="no"?><!DOCTYPE svg PUBLIC "-//W3C//DTD SVG 1.1//EN" "http://www.w3.org/Graphics/SVG/1.1/DTD/svg11.dtd"><svg t="1639585946663" class="icon" viewBox="0 0 1024 1024" version="1.1" xmlns="http://www.w3.org/2000/svg" p-id="8177" xmlns:xlink="http://www.w3.org/1999/xlink" width="200" height="200"><defs><style type="text/css"></style></defs><path d="M955.55 149.85l-28.79 2.97c-25.91 2.67-51.82 5.34-77.73 8.02-37.55 3.87-75.1 7.75-112.65 11.62-44.94 4.63-89.87 9.27-134.81 13.9l-142.54 14.7-137.27 14.16c-39.51 4.08-79.03 8.15-118.54 12.23l-86.37 8.91c-13.58 1.4-27.17 2.74-40.75 4.2-2.16 0.23-4.26 0.45-6.3 1.29-10 4.07-11.04 15.98-3.94 23.18 5.8 5.89 11.99 11.44 17.97 17.15 29.17 27.85 58.34 55.69 87.51 83.54l95.75 91.4c9.56 9.13 19.13 18.26 28.69 27.39 6.59 6.29 12.94 12.84 23.15 7.95 12.23-5.85 24.15-12.48 36.19-18.71 28.13-14.54 56.27-29.09 84.4-43.63 38.2-19.75 76.41-39.5 114.61-59.25 42.27-21.85 84.54-43.71 126.81-65.56l120.99-62.55c32.39-16.74 64.77-33.49 97.16-50.23 18.44-9.53 36.88-19.06 55.31-28.6 3.03-1.57 9.34-3.91 10.99-6.86 1.29-2.32 0.61-5.5-1.79-6.84-2.49-1.4-5.39-0.66-8.05-0.38-6.33 0.67-6.4 10.68 0 10 1.1-0.12 2.37-0.06 3.42-0.36 1.45-0.41 2.09 0.77-0.43-0.64-0.6-2.28-1.2-4.56-1.79-6.84 1.09-1.95 1.07-1.12-1.02-0.02-0.1 0.05-0.2 0.1-0.31 0.16-0.46 0.24-0.92 0.48-1.38 0.71-1.87 0.97-3.74 1.93-5.61 2.9-7.32 3.78-14.64 7.57-21.96 11.35-26.21 13.55-52.41 27.1-78.62 40.64-36.82 19.04-73.65 38.07-110.47 57.11-41.62 21.52-83.24 43.04-124.86 64.55l-121.8 62.97C456.86 409.89 423 427.4 389.14 444.9c-21.05 10.88-42.09 21.76-63.14 32.64-3.89 2.01-7.79 4.5-11.86 6.13-4.84 1.94-9.07-4.12-12.19-7.1-24.54-23.43-49.09-46.86-73.63-70.29-33.14-31.63-66.27-63.26-99.41-94.89-12.6-12.03-25.21-24.06-37.81-36.1-6-5.73-12.43-11.22-18.1-17.28-4.89-5.22 0.62-7.21 4.96-7.66l16.56-1.71c23.1-2.38 46.19-4.76 69.29-7.15 35.31-3.64 70.63-7.28 105.94-10.93l129.72-13.38c46.99-4.85 93.97-9.69 140.96-14.54 45.89-4.73 91.79-9.47 137.68-14.2 41.08-4.24 82.16-8.47 123.25-12.71 31.46-3.24 62.92-6.49 94.38-9.73l52.96-5.46c2.29-0.24 4.58-0.47 6.88-0.71 6.31-0.64 6.37-10.64-0.03-9.98z" fill="#01AC9A" p-id="8178"></path><path d="M956.64 154.77l-11.82 26.43c-10.51 23.49-21.02 46.99-31.53 70.48-15.11 33.77-30.22 67.54-45.33 101.32-17.67 39.5-35.34 79-53.02 118.49-18.4 41.12-36.8 82.25-55.2 123.37L708.62 709.1c-13.84 30.93-27.68 61.86-41.51 92.79-8.6 19.22-17.2 38.45-25.8 57.67-1.72 3.84-3.38 7.73-5.16 11.54-3.02 6.44-7.21 3.19-10.14-0.69-16.02-21.19-32.05-42.37-48.07-63.56-26.19-34.62-52.38-69.25-78.56-103.87-23.36-30.88-46.71-61.76-70.07-92.63-6.45-8.53-12.9-17.05-19.35-25.58-2.58-3.41-7.25-7.88-2.95-11.78 3.24-2.94 7.18-5.36 10.68-7.97 7.52-5.61 15.03-11.22 22.55-16.83 24.4-18.22 48.8-36.43 73.19-54.65l98.16-73.29c36.05-26.91 72.1-53.83 108.14-80.74 34.26-25.58 68.52-51.16 102.77-76.73l83.22-62.13c16.06-11.99 32.11-23.98 48.17-35.97 1.6-1.19 3.2-2.39 4.8-3.58 0.32-0.24 0.99-0.56 1.21-0.9 1.03-1.61 1.18 4.45-2.45-0.15-0.49-1.18-0.98-2.36-1.46-3.54-0.01 0.26-0.01 0.52-0.02 0.78-0.16 6.44 9.84 6.43 10 0 0.15-6.15-6.8-8.48-11.38-5.53-1.38 0.89-2.66 1.98-3.97 2.96l-17.53 13.09c-22.2 16.58-44.41 33.16-66.61 49.73-31.87 23.8-63.74 47.59-95.62 71.39-36.18 27.02-72.37 54.03-108.55 81.05-35.55 26.55-71.11 53.09-106.66 79.64-29.49 22.01-58.97 44.03-88.46 66.04l-55.28 41.27c-3.39 2.53-6.81 5.02-10.16 7.59-6.48 4.96-8.89 13.19-4.15 20.36 0.82 1.24 1.81 2.39 2.7 3.57 16.49 21.81 32.99 43.61 49.48 65.42l80.28 106.14c23.14 30.6 46.29 61.2 69.43 91.79l17.96 23.75c0.83 1.1 1.64 2.21 2.49 3.29 6.63 8.47 19.44 7.92 24.52-1.96 5.07-9.87 9.13-20.41 13.66-30.53 11.16-24.93 22.31-49.87 33.47-74.8 15.7-35.08 31.39-70.17 47.09-105.25 18.18-40.63 36.36-81.27 54.54-121.9 18.61-41.58 37.21-83.17 55.82-124.75 16.92-37.81 33.83-75.62 50.75-113.43 13.3-29.72 26.6-59.44 39.89-89.16 7.54-16.85 15.08-33.71 22.62-50.56 1-2.23 1.99-4.46 2.99-6.69 2.59-5.82-6.03-10.91-8.65-5.04z" fill="#01AC9A" p-id="8179"></path><path d="M302.65 488.61l-10.32 93.38c-0.46 4.18-1.33 8.52-1.41 12.73-0.16 8.52 7.59 10.98 14.46 9.31 16.14-3.92 32.29-7.84 48.43-11.77 15-3.65 30.01-7.29 45.01-10.94 6.25-1.52 3.6-11.16-2.66-9.64l-87.15 21.18c-2.25 0.55-4.51 1.08-6.76 1.64-0.27 0.07-1.36 0.51-1.62 0.39-0.66-0.3 0.45 0.49 0.28-0.1-0.26-0.92 0.3-2.67 0.4-3.61l0.87-7.88c1.98-17.95 3.97-35.9 5.95-53.84 1.51-13.62 3.01-27.24 4.51-40.86 0.72-6.38-9.29-6.33-9.99 0.01z" fill="#01AC9A" p-id="8180"></path></svg>