<?xml version="1.0" standalone="no"?><!DOCTYPE svg PUBLIC "-//W3C//DTD SVG 1.1//EN" "http://www.w3.org/Graphics/SVG/1.1/DTD/svg11.dtd"><svg t="1639585623422" class="icon" viewBox="0 0 1024 1024" version="1.1" xmlns="http://www.w3.org/2000/svg" p-id="5967" xmlns:xlink="http://www.w3.org/1999/xlink" width="200" height="200"><defs><style type="text/css"></style></defs><path d="M 436.267 907.52 c -9.6 0 -19.4133 -0.64 -28.8 -1.70667 c -11.7333 -1.28 -20.0533 -11.9467 -18.7733 -23.68 a 21.12 21.12 0 0 1 23.68 -18.7733 c 17.0667 1.92 34.3467 1.92 51.6267 -0.426667 c 88.7467 -11.7333 159.787 -81.7067 172.587 -170.027 c 10.4533 -71.68 -17.4933 -141.44 -76.5867 -191.36 c -12.3733 -10.4533 -25.8133 -20.6933 -39.2533 -31.1467 c -49.92 -38.1867 -106.453 -81.4933 -127.36 -147.413 c -5.12 -16.2133 -7.68 -33.28 -7.68 -50.3467 c 0 -22.8267 4.48 -45.0133 13.44 -65.92 a 168.853 168.853 0 0 1 56.5333 -70.4 c 27.52 -19.6267 80 -40.96 116.693 -40.96 c 11.7333 0 21.3333 9.6 21.3333 21.3333 s -9.6 21.3333 -21.3333 21.3333 c -25.8133 0 -70.6133 17.7067 -91.9467 32.8533 a 124.587 124.587 0 0 0 -52.2667 101.547 c 0 12.8 1.92 25.3867 5.76 37.5467 c 16.8533 53.3333 65.4933 90.4533 112.64 126.507 c 14.08 10.88 28.16 21.5467 40.96 32.4267 c 70.6133 59.52 103.893 143.573 91.0933 230.187 c -15.5733 107.093 -101.76 192 -209.28 206.293 c -10.88 1.49333 -21.9733 2.13333 -33.0667 2.13333 Z" fill="#333303" p-id="5968"></path><path d="M 388.693 909.867 c -2.98667 0 -5.97333 -0.426667 -8.96 -1.28 A 422.357 422.357 0 0 1 104.533 633.6 c -2.77333 -8.96 -5.33333 -18.1333 -7.46667 -27.3067 c -3.41333 -14.2933 3.2 -29.2267 16.4267 -36.0533 c 13.2267 -6.82667 29.2267 -3.62667 38.8267 7.46667 c 33.92 39.2533 101.333 76.5867 150.4 93.2267 c 6.18667 2.13333 12.16 3.84 17.7067 5.54667 c 26.0267 7.89333 53.12 16.2133 74.88 43.7333 c 34.56 43.52 29.6533 100.693 26.88 134.827 c -0.64 6.82667 -1.28 16 -1.06667 18.7733 c 1.06667 10.6667 -3.2 21.76 -11.52 28.3733 c -6.18667 4.90667 -13.6533 7.68 -20.9067 7.68 Z m -185.6 -213.973 c 37.3333 59.7333 91.7333 107.307 156.373 136.533 c 1.49333 -24.96 0.64 -53.3333 -14.5067 -72.32 c -8.96 -11.52 -20.48 -15.36 -43.3067 -22.1867 c -6.18667 -1.92 -12.8 -3.84 -19.6267 -6.18667 c -23.68 -8.10667 -51.4133 -20.48 -78.9333 -35.84 Z" fill="#333303" p-id="5969"></path><path d="M 506.453 928 c -38.4 0 -77.0133 -5.33333 -114.347 -16 a 32 32 0 0 1 -21.5467 -20.2667 c -3.41333 -9.81333 -1.70667 -20.9067 4.48 -29.44 c 28.5867 -39.04 39.04 -76.8 31.5733 -111.787 c -13.2267 -60.5867 -75.3067 -99.6267 -94.08 -110.293 c -110.72 -62.2933 -174.08 -126.933 -193.707 -197.973 c -13.2267 -47.7867 -5.97333 -96.64 21.76 -145.067 C 170.667 244.693 212.48 198.4 261.76 163.2 c 4.26667 -2.98667 8.53333 -5.97333 13.0133 -8.96 a 32 32 0 0 1 49.4933 29.0133 v 1.06667 c 38.6133 -49.28 99.6267 -99.4133 192.853 -99.4133 c 218.453 0 398.933 175.147 410.667 398.507 c 6.18667 116.907 -34.7733 228.053 -114.987 312.96 c -80.8533 84.9067 -189.44 131.627 -306.347 131.627 Z m -55.04 -68.2667 c 18.3467 2.77333 36.6933 4.26667 55.04 4.26667 c 98.9867 0 191.147 -39.68 259.413 -111.573 c 68.2667 -71.8933 102.827 -166.187 97.4933 -265.387 c -9.81333 -186.453 -165.333 -337.92 -346.667 -337.92 c -100.053 0 -150.827 76.8 -184.107 143.573 l -2.13333 4.26667 c -14.2933 28.8 -36.9067 25.1733 -43.3067 23.2533 c -18.7733 -5.12 -29.2267 -15.1467 -29.8667 -70.1867 a 361.6 361.6 0 0 0 -61.44 79.1467 c -19.2 33.7067 -24.32 65.0667 -15.7867 96.2133 c 14.72 52.9067 69.5467 106.453 163.413 159.147 c 31.5733 17.7067 106.88 68.0533 125.227 152.32 c 8.96 40.5333 3.2 81.7067 -17.28 122.88 Z" fill="#333303" p-id="5970"></path></svg>